<svg width="45" height="58" viewBox="0 0 45 58" fill="none" xmlns="http://www.w3.org/2000/svg">
<path d="M11.8565 0.830585C11.3919 1.09605 11.3698 1.23985 11.3588 3.2751V5.23293L5.7065 29.2356C2.21118 44.1239 0.0763756 53.3932 0.0984979 53.6476C0.12062 53.9241 0.220171 54.1122 0.40821 54.2559C0.6958 54.4661 10.0646 57.3309 10.4628 57.3309C10.5845 57.3309 10.8057 57.2203 10.9606 57.0765C11.1597 56.9106 13.1507 52.3645 17.8406 41.4029C21.4797 32.919 24.4773 25.9394 24.5105 25.8952C24.5768 25.8177 28.7248 35.3635 28.7248 35.5737C28.7248 35.6179 27.7071 35.6511 26.4572 35.6511C24.1897 35.6511 24.1786 35.6511 23.9132 35.9276L23.6366 36.1931V40.7835V45.3738L23.891 45.6614C24.1123 45.9158 24.5215 46.0154 29.0898 46.9335C32.5409 47.6193 34.1115 47.8958 34.2885 47.8294C34.4213 47.7741 36.6999 45.7831 39.3435 43.405C43.2591 39.8875 44.1772 39.0026 44.2989 38.6708C44.4095 38.3611 44.4316 37.7195 44.4095 36.3148L44.3652 34.3791L41.1133 20.1102L37.8613 5.84129L37.806 3.54057L37.7396 1.22879L37.4299 0.963318L37.1202 0.697853H24.599C15.385 0.708912 12.0224 0.742096 11.8565 0.830585ZM16.9999 3.51844V4.45864H15.1195H13.2391V3.51844V2.57825H15.1195H16.9999V3.51844ZM21.7562 3.51844V4.45864H20.3183H18.8803V3.51844V2.57825H20.3183H21.7562V3.51844ZM25.517 3.51844V4.45864H24.5768H23.6366V3.51844V2.57825H24.5768H25.517V3.51844ZM30.2512 3.54057L30.2844 4.45864H28.8354H27.3974V3.51844V2.56719L28.8133 2.60037L30.218 2.63355L30.2512 3.54057ZM35.9145 3.51844V4.45864H34.0341H32.1537V3.51844V2.57825H34.0341H35.9145V3.51844ZM16.9999 7.57789C16.9999 9.04902 16.7787 9.66845 16.0266 10.3432C15.3961 10.9073 14.6882 11.0953 13.1617 11.0953C12.0114 11.0953 11.9007 11.0732 11.9561 10.8962C12.0224 10.6971 13.0179 6.44965 13.0179 6.38329C13.0179 6.36116 13.9139 6.33904 15.0089 6.33904H16.9999V7.57789ZM23.6366 14.7123V23.0967L16.7677 39.1354C12.9847 47.9511 9.88762 55.1851 9.87656 55.1961C9.84337 55.2404 2.3771 53.0171 2.22224 52.9175C2.13375 52.8733 3.58276 46.5353 6.77943 32.9411C9.35668 21.9906 11.4694 13.02 11.4694 12.9979C11.4694 12.9868 12.133 12.9757 12.9516 12.9757C15.3186 12.9757 16.281 12.6881 17.3981 11.6263C18.4821 10.5976 18.8803 9.50253 18.8803 7.50046V6.33904H21.2585H23.6366V14.7123ZM27.3974 13.6726V21.0061L26.8222 21.4375C26.5015 21.6698 26.0701 21.9795 25.882 22.1344L25.517 22.3998V14.3694V6.33904H26.4572H27.3974V13.6726ZM30.2844 7.8876C30.3618 9.60208 30.4503 9.95604 31.0476 10.8409C31.5454 11.5931 32.1427 12.113 32.9612 12.489C33.7908 12.8651 34.5208 12.9757 36.1468 12.9757C37.5294 12.9757 37.5737 12.9868 37.629 13.2191C38.901 18.6169 42.4406 34.6998 42.4406 35.098V35.6511H36.6446H30.8485L28.4593 30.0763C27.143 27.0123 26.0701 24.4572 26.0701 24.4019C26.0811 24.3577 26.7227 23.8378 27.497 23.2626C28.2823 22.6874 29.0013 22.0791 29.1008 21.9131C29.2557 21.6587 29.2778 20.7738 29.2778 13.9712V6.32798L29.7535 6.36116L30.218 6.39434L30.2844 7.8876ZM36.6003 8.66188C36.8879 9.91179 37.1202 10.9737 37.1202 11.029C37.1312 11.0732 36.4676 11.1064 35.6712 11.0732C34.2996 11.04 34.1558 11.0068 33.6138 10.7193C32.4856 10.0998 32.1537 9.39192 32.1537 7.61107V6.33904L34.1115 6.36116L36.0804 6.39434L36.6003 8.66188ZM42.4406 37.808C42.4406 38.0292 41.5889 38.8478 38.0825 42.0113L33.7244 45.938L29.8641 45.1637C27.7514 44.7434 25.9042 44.3673 25.7714 44.3341L25.517 44.2788V40.9051V37.5315H33.9788H42.4406V37.808Z" fill="#8F8F8F"/>
</svg>
