<svg width="58" height="58" viewBox="0 0 58 58" fill="none" xmlns="http://www.w3.org/2000/svg">
<path d="M15.6304 3.00961C12.2567 4.27058 9.2149 5.44307 8.88307 5.62004C7.98711 6.07355 7.00267 7.1133 6.5381 8.1088C6.01823 9.20386 0.697815 25.2204 0.697815 25.696C0.697815 26.6915 1.5274 27.8751 2.41229 28.1184C2.64458 28.1737 4.93424 28.395 7.51148 28.583L12.2014 28.948V41.5135C12.2014 52.4972 12.2235 54.1011 12.3673 54.3112C12.7102 54.7979 17.1236 56.0589 20.4198 56.6009C23.6386 57.1429 25.2646 57.2646 29.0697 57.2646C32.8747 57.2646 34.6666 57.1208 37.7527 56.6009C40.9604 56.0589 45.3296 54.7869 45.6614 54.3112C45.8052 54.1011 45.8273 52.5746 45.8273 41.5135V28.9591L50.5062 28.5941C53.0724 28.395 55.3731 28.1848 55.6164 28.1184C56.5013 27.8751 57.3309 26.7026 57.3309 25.685C57.3309 25.4859 56.0589 21.5039 54.5103 16.8471C52.4308 10.6197 51.5791 8.19729 51.2694 7.67742C50.7716 6.83677 49.8868 5.99612 49.0461 5.5758C48.7032 5.39882 45.6835 4.2374 42.332 2.97643L36.2484 0.697834H29.0033H21.7693L15.6304 3.00961ZM35.098 2.68884C35.098 3.00961 34.6224 4.24846 34.2795 4.84576C33.5494 6.09567 31.9234 7.2571 30.4413 7.61105C28.3949 8.08668 26.1938 7.47832 24.7005 5.99612C23.9705 5.27715 23.5612 4.62454 23.1851 3.60691C22.7206 2.33488 22.0348 2.46762 29.0144 2.46762C34.9763 2.46762 35.098 2.46762 35.098 2.68884ZM21.3158 3.57373C21.4154 3.97194 21.7029 4.71303 21.9573 5.23291C22.3334 5.98506 22.621 6.36114 23.3732 7.1133C24.435 8.17517 25.3421 8.75035 26.6362 9.18174C27.4216 9.4472 27.687 9.48038 29.0144 9.48038C30.3417 9.48038 30.6072 9.4472 31.3925 9.18174C32.6867 8.75035 33.5937 8.17517 34.6556 7.1133C35.4077 6.36114 35.6953 5.98506 36.0714 5.23291C36.3258 4.71303 36.6134 3.96087 36.7129 3.56267L36.8899 2.83263L37.6863 3.13129C38.1398 3.30827 38.4827 3.50737 38.5048 3.60691C38.5712 3.92769 37.8854 5.68641 37.3434 6.58236C34.8657 10.7303 29.6006 12.4337 25.1761 10.5201C22.6984 9.43614 20.6964 7.27922 19.8115 4.73515C19.6345 4.21528 19.5018 3.70647 19.5239 3.60691C19.546 3.50737 19.8779 3.30827 20.3314 3.13129C20.7627 2.96537 21.1167 2.8437 21.1167 2.8437C21.1278 2.85476 21.2163 3.17553 21.3158 3.57373ZM18.0417 4.98956C19.1036 8.49594 21.8467 11.2944 25.3752 12.4669C26.8796 12.9646 28.0742 13.1306 29.6117 13.0531C31.7133 12.9425 33.6379 12.312 35.3635 11.1617C37.5425 9.71267 39.2127 7.48938 39.976 5.01168C40.1198 4.55817 40.2414 4.15997 40.2525 4.14891C40.3078 4.07148 48.1059 7.04693 48.482 7.27922C48.9797 7.58893 49.6324 8.31897 49.8978 8.8499C50.0195 9.08218 51.3468 12.9646 52.8511 17.4887C54.7537 23.1962 55.5611 25.7845 55.5169 25.9726C55.4837 26.1164 55.351 26.2933 55.2404 26.3597C55.0523 26.4482 47.1104 27.134 46.1591 27.134H45.8273V23.9263V20.7075L45.5508 20.442C45.1968 20.077 44.688 20.077 44.3341 20.442L44.0575 20.7075V36.9563V53.2051L42.9293 53.548C40.1861 54.3887 37.4208 54.9417 34.191 55.3067C31.8239 55.5722 26.2048 55.5722 23.8377 55.3067C20.63 54.9417 18.1191 54.444 15.3317 53.6144L13.9712 53.2051V36.9563V20.7075L13.6836 20.4199C13.4513 20.1876 13.3296 20.1544 12.9978 20.2097C12.2014 20.3314 12.2014 20.3535 12.2014 23.9373V27.134H11.9028C10.9736 27.134 2.96535 26.4482 2.78837 26.3597C2.67776 26.2933 2.54503 26.1164 2.51184 25.9726C2.4676 25.7845 3.27506 23.1962 5.17758 17.4887C6.6819 12.9646 8.00924 9.08218 8.13091 8.8499C8.42956 8.2526 9.17066 7.46726 9.71265 7.19073C10.1551 6.95844 17.4665 4.15997 17.6767 4.13785C17.743 4.13785 17.909 4.51393 18.0417 4.98956Z" fill="#C92071"/>
</svg>
