<svg width="12" height="11" viewBox="0 0 12 11" fill="none" xmlns="http://www.w3.org/2000/svg">
<path d="M5.73077 0.690889C5.89662 0.454437 6.28484 0.454437 6.4507 0.690889L8.2009 3.18615C8.25925 3.26935 8.35195 3.32905 8.45924 3.35253L11.6773 4.05696C11.9822 4.12371 12.1022 4.451 11.8997 4.66389L9.7634 6.91047C9.69217 6.98537 9.65677 7.08197 9.66472 7.17968L9.90337 10.1103C9.92598 10.388 9.6119 10.5903 9.32093 10.4854L6.2504 9.37861C6.14802 9.34171 6.03344 9.34171 5.93107 9.37861L2.86053 10.4854C2.56957 10.5903 2.25548 10.388 2.2781 10.1103L2.51674 7.17968C2.5247 7.08197 2.48929 6.98537 2.41806 6.91047L0.281722 4.66389C0.0792822 4.451 0.199251 4.12371 0.504192 4.05696L3.72222 3.35253C3.82951 3.32905 3.92221 3.26935 3.98056 3.18615L5.73077 0.690889Z" fill="white"/>
</svg>
